<?xml version="1.0" standalone="no"?>
<!DOCTYPE svg PUBLIC "-//W3C//DTD SVG 20010904//EN"
 "http://www.w3.org/TR/2001/REC-SVG-20010904/DTD/svg10.dtd">
<svg version="1.0" xmlns="http://www.w3.org/2000/svg"
 width="695.000000pt" height="764.000000pt" viewBox="0 0 695.000000 764.000000"
 preserveAspectRatio="xMidYMid meet">
<metadata>
Created by potrace 1.14, written by Peter Selinger 2001-2017
</metadata>
<g transform="translate(0.000000,764.000000) scale(0.100000,-0.100000)"
fill="#000000" stroke="none">
<path d="M1164 7621 c-89 -54 -155 -211 -234 -561 -92 -405 -135 -824 -147
-1430 l-6 -335 -106 -72 c-111 -75 -260 -193 -245 -193 19 0 214 -30 296 -46
63 -12 89 -21 92 -33 3 -9 17 -77 31 -151 36 -181 73 -290 150 -446 l65 -131
-56 -119 c-133 -282 -224 -519 -278 -723 -14 -51 -27 -96 -30 -98 -2 -3 -54
-11 -114 -18 -140 -17 -263 -47 -360 -86 -42 -16 -78 -32 -81 -34 -10 -10 80
-241 148 -382 l77 -156 -183 -183 c-101 -100 -183 -188 -183 -196 0 -19 81
-147 164 -258 39 -52 116 -141 172 -197 l102 -101 -44 -64 c-58 -81 -154 -235
-154 -247 0 -28 312 -127 548 -175 l164 -33 65 -89 c36 -49 118 -141 182 -204
92 -92 148 -136 268 -215 181 -119 264 -168 330 -194 26 -10 95 -40 152 -66
76 -34 106 -43 112 -34 5 8 -36 31 -137 74 -161 71 -340 169 -477 265 -117 82
-346 309 -421 418 -40 56 -64 82 -78 82 -86 0 -593 137 -644 174 -16 12 -15
17 14 68 18 31 61 97 97 147 36 51 65 94 65 96 0 2 -51 55 -113 117 -112 111
-216 241 -291 365 l-38 62 30 38 c34 43 259 264 311 307 l35 28 -46 86 c-59
110 -122 253 -159 359 -16 46 -29 85 -29 87 0 8 168 64 242 81 42 9 127 22
190 28 l113 12 18 70 c60 232 132 428 268 723 l89 193 -40 69 c-51 87 -102
207 -135 313 -26 88 -78 328 -71 334 6 6 150 -44 197 -67 l39 -20 0 -123 c0
-144 20 -285 53 -382 30 -86 59 -146 68 -143 4 2 58 62 120 133 144 165 322
340 438 430 49 39 90 73 90 78 1 4 -28 49 -63 100 -375 545 -584 1256 -615
2087 -5 156 -8 175 -23 178 -16 3 -18 -7 -18 -104 0 -134 16 -344 40 -534 l18
-145 -68 -162 c-149 -348 -218 -606 -233 -861 -2 -38 -6 -46 -39 -64 -21 -12
-40 -19 -44 -15 -9 9 14 704 31 908 37 454 116 887 212 1153 87 241 199 272
293 79 108 -220 203 -336 580 -713 413 -413 623 -654 797 -915 36 -55 67 -101
68 -103 2 -2 48 6 103 18 316 64 713 68 1003 10 291 -59 567 -173 810 -336 61
-41 117 -74 123 -74 7 0 59 16 117 36 168 57 359 103 484 115 138 14 284 1
353 -32 62 -30 125 -115 243 -323 188 -334 226 -387 464 -644 61 -66 120 -139
132 -163 36 -73 53 -278 36 -438 -6 -61 -7 -63 -32 -57 -63 15 -152 18 -200 6
-60 -14 -124 -58 -146 -99 -38 -75 -1 -203 75 -256 38 -26 44 -27 114 -21 62
6 76 4 95 -11 l22 -18 -16 -170 c-23 -245 -102 -775 -118 -791 -8 -8 -180 139
-301 256 -595 578 -859 1234 -808 2008 7 97 21 240 32 316 15 97 18 142 10
150 -19 19 -29 -9 -49 -149 -129 -892 74 -1581 652 -2216 l106 -116 -14 -109
c-18 -136 -30 -199 -58 -293 -16 -56 -18 -76 -9 -79 63 -21 214 -157 281 -255
l30 -44 -92 -90 c-51 -49 -129 -120 -174 -157 -46 -37 -83 -72 -83 -76 0 -5
27 -25 61 -45 134 -82 359 -269 359 -298 0 -18 -79 -115 -151 -187 -85 -84
-196 -159 -343 -234 -59 -30 -109 -56 -112 -59 -2 -2 14 -42 35 -88 40 -85 89
-234 80 -243 -12 -12 -269 -35 -454 -42 l-200 -7 -95 -53 c-132 -74 -320 -154
-487 -207 -338 -109 -679 -153 -1120 -145 -173 3 -233 1 -233 -8 0 -17 97 -24
319 -24 369 1 624 32 949 116 172 45 464 165 618 256 l60 35 219 6 c185 5 416
26 462 42 16 5 -15 116 -69 248 -22 54 -38 100 -37 101 2 2 42 23 89 46 193
96 351 225 467 378 l56 74 -59 60 c-67 68 -186 163 -292 233 -57 38 -70 51
-60 60 7 6 56 48 109 93 52 44 123 110 157 147 l62 66 -40 59 c-57 85 -141
171 -207 216 -32 21 -62 41 -66 44 -4 4 3 51 17 106 14 54 30 135 36 179 20
139 21 146 30 143 5 -2 55 -44 112 -93 124 -109 217 -185 227 -185 7 0 80 423
102 596 l12 92 61 17 c124 34 231 110 272 193 14 27 19 59 19 117 0 70 -5 89
-33 148 -36 74 -131 182 -184 211 l-33 18 3 177 c5 206 -7 304 -45 374 -15 26
-91 118 -169 202 -209 226 -237 266 -404 564 -180 323 -229 373 -387 401 -172
31 -418 -3 -714 -99 l-146 -48 -109 74 c-524 352 -1177 462 -1881 317 -29 -6
-33 -3 -68 52 -165 260 -492 632 -912 1039 -251 243 -357 377 -473 595 -82
153 -149 198 -226 151z m65 -1356 c22 -130 82 -359 136 -521 99 -298 236 -576
399 -812 l50 -72 -25 -17 c-106 -75 -326 -288 -483 -468 -43 -49 -82 -91 -86
-93 -10 -4 -45 88 -66 172 -10 38 -18 129 -21 243 -6 209 5 188 -123 240 -96
40 -210 69 -379 97 l-134 22 109 80 c60 45 157 110 216 145 l107 64 6 65 c19
208 53 374 117 560 54 156 150 383 158 373 4 -4 12 -39 19 -78z m5444 -2473
c82 -41 167 -129 209 -217 56 -122 36 -245 -52 -315 -43 -34 -150 -87 -196
-96 l-31 -6 10 74 c5 40 16 82 23 93 21 30 17 102 -7 142 -32 52 -67 65 -152
57 -65 -5 -75 -4 -100 16 -39 31 -67 91 -67 144 0 56 40 107 103 130 70 26
182 16 260 -22z"/>
<path d="M2809 4380 c-107 -57 -160 -211 -112 -332 58 -151 241 -305 400 -338
70 -15 117 -3 158 40 26 27 30 39 33 103 7 132 -68 302 -189 432 -100 107
-204 141 -290 95z m147 -35 c119 -50 254 -242 290 -415 37 -179 -59 -235 -246
-144 -94 46 -213 162 -254 245 -52 108 -33 214 53 292 46 42 94 49 157 22z"/>
<path d="M4280 4015 c-129 -61 -230 -172 -276 -303 -56 -159 -10 -213 170
-199 155 12 356 92 450 178 97 88 98 156 3 252 -70 71 -114 91 -212 95 -69 2
-87 -1 -135 -23z m237 -36 c49 -23 129 -106 139 -143 15 -63 -49 -132 -182
-197 -145 -71 -352 -108 -430 -79 -26 10 -27 13 -21 67 9 84 58 176 136 254
120 119 241 152 358 98z"/>
<path d="M1710 3551 c0 -4 21 -16 48 -26 57 -21 74 -35 44 -35 -43 0 -208 -60
-259 -95 -29 -20 -71 -59 -94 -87 l-41 -52 7 -66 c9 -86 29 -182 54 -252 20
-59 114 -252 133 -275 21 -26 27 -12 12 30 -94 256 -124 370 -124 473 l0 64
61 45 c71 53 166 100 229 114 53 12 210 14 210 3 0 -4 -12 -24 -26 -43 -43
-56 -122 -230 -144 -314 -42 -165 -19 -341 58 -444 41 -54 107 -111 128 -111
25 0 15 16 -31 50 -102 77 -150 196 -143 357 4 103 5 103 88 147 72 38 158 59
245 59 128 1 161 -13 276 -115 112 -102 116 -113 79 -210 -24 -63 -24 -68 -6
-68 16 0 52 87 63 153 l7 42 12 -50 c7 -27 13 -75 13 -105 2 -87 13 -190 21
-190 12 0 18 34 37 202 13 122 21 159 33 163 8 3 23 11 32 19 16 12 0 32 -169
205 -103 106 -216 214 -252 242 -117 87 -246 144 -385 168 -72 13 -216 14
-216 2z m404 -312 c68 -54 -15 -136 -91 -90 -65 41 -48 111 27 111 23 0 48 -8
64 -21z"/>
<path d="M2165 3036 c-64 -64 -62 -276 4 -276 28 0 49 31 67 100 19 75 15 152
-11 180 -23 26 -31 25 -60 -4z"/>
<path d="M4867 2495 c-195 -27 -380 -79 -537 -152 -131 -61 -341 -196 -327
-210 3 -2 59 14 125 37 179 60 300 82 467 82 250 1 471 -65 733 -217 39 -23
62 -31 62 -23 0 22 -95 140 -180 226 -45 45 -117 105 -160 134 -44 29 -79 56
-80 60 0 4 18 20 40 34 22 15 40 31 40 35 0 12 -65 10 -183 -6z"/>
<path d="M3137 1524 c-51 -27 -179 -54 -256 -54 -42 0 -119 7 -171 14 -52 8
-96 14 -97 13 -1 -2 -7 -32 -12 -67 -50 -308 115 -571 404 -645 74 -19 223
-19 294 0 215 57 351 223 376 458 l7 65 -58 7 c-166 17 -302 79 -429 196 -28
26 -32 27 -58 13z m34 -148 c173 -37 292 -146 306 -280 8 -79 -11 -134 -66
-186 -60 -59 -124 -80 -243 -80 -189 0 -354 77 -426 199 -22 37 -27 58 -27
112 0 56 5 73 30 115 69 111 240 159 426 120z"/>
</g>
</svg>
